<?xml version="1.0" encoding="UTF-8" standalone="no"?>
<svg
   xmlns:dc="http://purl.org/dc/elements/1.1/"
   xmlns:cc="http://creativecommons.org/ns#"
   xmlns:rdf="http://www.w3.org/1999/02/22-rdf-syntax-ns#"
   xmlns:svg="http://www.w3.org/2000/svg"
   xmlns="http://www.w3.org/2000/svg"
   xmlns:xlink="http://www.w3.org/1999/xlink"
   xmlns:sodipodi="http://sodipodi.sourceforge.net/DTD/sodipodi-0.dtd"
   xmlns:inkscape="http://www.inkscape.org/namespaces/inkscape"
   width="1000"
   height="1000"
   viewBox="0 0 264.58333 264.58335"
   version="1.1"
   id="svg8"
   inkscape:version="1.0.2-2 (e86c870879, 2021-01-15)"
   sodipodi:docname="phone1.svg">
  <title
     id="title3727">generic_edge_android_phone_device</title>
  <defs
     id="defs2">
    <linearGradient
       id="linearGradient5870"
       inkscape:collect="always">
      <stop
         id="stop5872"
         style="stop-color:#000000"
         offset="0" />
      <stop
         id="stop5874"
         style="stop-color:#1a1a1a"
         offset=".18616" />
      <stop
         id="stop5876"
         style="stop-color:#ffffff"
         offset=".35097" />
      <stop
         id="stop5878"
         style="stop-color:#000000"
         offset=".54466" />
      <stop
         id="stop5880"
         style="stop-color:#000000"
         offset=".68302" />
      <stop
         id="stop5882"
         style="stop-color:#ffffff"
         offset=".81357" />
      <stop
         id="stop5884"
         style="stop-color:#999999"
         offset=".91087" />
      <stop
         id="stop5886"
         style="stop-color:#cccccc"
         offset="1" />
    </linearGradient>
    <linearGradient
       id="linearGradient5663"
       y2="835.21997"
       xlink:href="#linearGradient5870"
       gradientUnits="userSpaceOnUse"
       x2="461.42999"
       gradientTransform="translate(0.4334)"
       y1="833.78998"
       x1="252.86"
       inkscape:collect="always" />
    <linearGradient
       id="linearGradient5695"
       y2="835.21997"
       xlink:href="#linearGradient5870"
       gradientUnits="userSpaceOnUse"
       x2="461.42999"
       gradientTransform="matrix(1,0,0,-1,0.32997,1226.5)"
       y1="832.35999"
       x1="253.92999"
       inkscape:collect="always" />
    <linearGradient
       id="linearGradient5754"
       y2="618.08002"
       gradientUnits="userSpaceOnUse"
       x2="265.26999"
       y1="618.08002"
       x1="252.86"
       inkscape:collect="always">
      <stop
         id="stop5727"
         style="stop-color:#ffffff"
         offset="0" />
      <stop
         id="stop5729"
         style="stop-color:#ffffff;stop-opacity:0"
         offset="1" />
    </linearGradient>
    <linearGradient
       id="linearGradient5787"
       y2="598.92999"
       gradientUnits="userSpaceOnUse"
       x2="413.91"
       gradientTransform="matrix(1.5387,0,0,1,-238.72,0)"
       y1="598.92999"
       x1="444.54001"
       inkscape:collect="always">
      <stop
         id="stop5737"
         style="stop-color:#ffffff"
         offset="0" />
      <stop
         id="stop5739"
         style="stop-color:#ffffff;stop-opacity:0"
         offset="1" />
    </linearGradient>
    <linearGradient
       id="linearGradient5789"
       y2="601.65002"
       gradientUnits="userSpaceOnUse"
       x2="449.32001"
       y1="601.65002"
       x1="477.14001"
       inkscape:collect="always">
      <stop
         id="stop5747"
         style="stop-color:#ffffff"
         offset="0" />
      <stop
         id="stop5749"
         style="stop-color:#ffffff;stop-opacity:0"
         offset="1" />
    </linearGradient>
    <linearGradient
       id="linearGradient5826"
       y2="345.92999"
       gradientUnits="userSpaceOnUse"
       x2="386.79001"
       gradientTransform="matrix(1.0169,0,0,0.50749,2.2981,187.77)"
       y1="345.92999"
       x1="311.79001"
       inkscape:collect="always">
      <stop
         id="stop5830"
         style="stop-color:#000000"
         offset="0" />
      <stop
         id="stop5832"
         style="stop-color:#ffffff"
         offset=".24312" />
      <stop
         id="stop5834"
         style="stop-color:#ffffff"
         offset=".35097" />
      <stop
         id="stop5836"
         style="stop-color:#000000"
         offset=".54466" />
      <stop
         id="stop5844"
         style="stop-color:#000000"
         offset=".68302" />
      <stop
         id="stop5838"
         style="stop-color:#ffffff"
         offset=".81357" />
      <stop
         id="stop5840"
         style="stop-color:#ffffff"
         offset=".91087" />
      <stop
         id="stop5842"
         style="stop-color:#cccccc"
         offset="1" />
    </linearGradient>
    <linearGradient
       id="linearGradient5864"
       y2="614.96997"
       gradientUnits="userSpaceOnUse"
       x2="371.57999"
       gradientTransform="matrix(1.1311,0,0,1,-38.179,0)"
       y1="613.45001"
       x1="291.59"
       inkscape:collect="always">
      <stop
         id="stop5779"
         style="stop-color:#ffffff"
         offset="0" />
      <stop
         id="stop5781"
         style="stop-color:#ffffff;stop-opacity:0"
         offset="1" />
    </linearGradient>
    <filter
       id="filter6180"
       height="1.4143"
       width="1.4065"
       color-interpolation-filters="sRGB"
       y="-0.20716999"
       x="-0.20326"
       inkscape:collect="always">
      <feGaussianBlur
         id="feGaussianBlur6182"
         stdDeviation="12.895784"
         inkscape:collect="always" />
    </filter>
  </defs>
  <sodipodi:namedview
     id="base"
     pagecolor="#ffffff"
     bordercolor="#666666"
     borderopacity="1.0"
     inkscape:pageopacity="0.0"
     inkscape:pageshadow="2"
     inkscape:zoom="0.7"
     inkscape:cx="476.78159"
     inkscape:cy="522.50783"
     inkscape:document-units="mm"
     inkscape:current-layer="layer1"
     showgrid="false"
     units="px"
     inkscape:window-width="1920"
     inkscape:window-height="1017"
     inkscape:window-x="-8"
     inkscape:window-y="-8"
     inkscape:window-maximized="1"
     inkscape:document-rotation="0"
     inkscape:snap-global="false" />
  <metadata
     id="metadata5">
    <rdf:RDF>
      <cc:Work
         rdf:about="">
        <dc:format>image/svg+xml</dc:format>
        <dc:type
           rdf:resource="http://purl.org/dc/dcmitype/StillImage" />
        <dc:title>generic_edge_android_phone_device</dc:title>
      </cc:Work>
    </rdf:RDF>
  </metadata>
  <g
     inkscape:label="Layer 1"
     inkscape:groupmode="layer"
     id="layer1"
     transform="translate(0,-106.49998)">
    <ellipse
       style="opacity:1;fill:#60a5fa;fill-opacity:1;stroke:none;stroke-width:2.09491;stroke-linecap:round;stroke-linejoin:round;stroke-miterlimit:4;stroke-dasharray:none;stroke-opacity:1;paint-order:stroke fill markers"
       id="path1321"
       cx="132.09663"
       cy="238.86574"
       rx="131.70772"
       ry="130.85249" />
    <rect
       id="rect10"
       width="89.313583"
       height="162.63069"
       x="90.840828"
       y="160.77518"
       style="stroke-width:1.31964"
       ry="11.997347"
       inkscape:export-xdpi="90"
       inkscape:export-ydpi="90" />
    <rect
       style="fill:#333333;fill-opacity:1;stroke:none;stroke-width:1.3928"
       id="rect20"
       width="85.314461"
       height="135.63667"
       x="92.84037"
       y="172.10606"
       ry="4.8318419"
       inkscape:export-xdpi="90"
       inkscape:export-ydpi="90" />
    <circle
       style="fill:#999999;stroke:none;stroke-width:1.31964"
       id="path22"
       cx="135.49763"
       cy="314.90778"
       r="5.8320432"
       inkscape:export-xdpi="90"
       inkscape:export-ydpi="90" />
    <rect
       style="fill:#b3b3b3;stroke:none;stroke-width:1.31964"
       id="rect24"
       width="19.794613"
       height="2.7099769"
       x="125.60034"
       y="165.37991"
       ry="1.3549885"
       inkscape:export-xdpi="90"
       inkscape:export-ydpi="90" />
    <g
       id="layer1-2"
       inkscape:label="Capa 1"
       transform="matrix(0.16669279,0,0,0.14089939,76.625188,160.48305)">
      <path
         id="path5866"
         d="m 270.3,384.52 c 60.276,-13.049 116.44,-13.563 174.56,0 9.2629,2.1617 17.169,7.6576 17.169,17.169 v 417.79 c 0,9.5118 -7.947,14.841 -17.169,17.169 -51.484,12.999 -114.57,12.883 -174.56,0 -9.2998,-1.9973 -17.169,-7.6576 -17.169,-17.169 v -417.79 c 0,-9.5118 7.8729,-15.157 17.169,-17.169 z"
         sodipodi:nodetypes="sssssssss"
         style="opacity:0.10204;fill:#ffffff"
         inkscape:connector-curvature="0" />
      <path
         id="rect5815"
         sodipodi:nodetypes="sssssssss"
         style="fill:url(#linearGradient5826)"
         inkscape:connector-curvature="0"
         d="m 330.96,344.3 c 17.674,-2.4899 35.348,-2.2847 53.022,0 6.3011,0.81454 11.621,2.9909 11.621,6.7061 v 24.65 c 0,3.7152 -5.183,6.7061 -11.621,6.7061 H 330.96 c -6.4381,0 -11.621,-2.9909 -11.621,-6.7061 v -24.65 c 0,-3.7152 5.3448,-5.8219 11.621,-6.7061 z" />
      <path
         id="path5691"
         sodipodi:nodetypes="ssssssssss"
         style="fill:#00ff00"
         inkscape:connector-curvature="0"
         d="m 296.35469,584.03145 c 47.44908,-22.03708 53.50793,26.08155 111.6279,32.72121 5.47082,0.62499 21.98727,-2.84528 35.57964,-14.15073 9.42148,-7.83631 18.06286,-25.35018 18.06593,-23.44406 L 462.029,828.2446 c 0.007,4.65619 -7.947,7.2648 -17.169,8.4047 -51.484,6.3631 -114.57,6.3063 -174.56,0 -9.2998,-0.97771 -17.169,-3.7485 -17.169,-8.4047 v -204.51 c 0,-4.6562 34.53584,-35.6682 43.22369,-39.70315 z" />
      <path
         id="rect4881"
         style="fill:url(#linearGradient5663)"
         inkscape:connector-curvature="0"
         d="m 461.87,818.72 c -1.0886,8.1972 -8.5157,12.912 -17.031,15.062 -51.484,12.999 -114.55,12.883 -174.53,0 -8.5846,-1.8437 -15.949,-6.7968 -17.031,-15.031 v 7.9062 c 0,9.4972 7.8708,15.131 17.156,17.125 59.891,12.863 122.88,12.979 174.28,0 9.2082,-2.3249 17.156,-7.6278 17.156,-17.125 v -7.9375 z" />
      <path
         id="path5693"
         d="m 461.77,407.76 c -1.0886,-8.1972 -8.5157,-12.912 -17.031,-15.062 -51.484,-12.999 -114.55,-12.883 -174.53,0 -8.5846,1.8437 -15.949,6.7968 -17.031,15.031 v -7.9062 c 0,-9.4972 7.8708,-15.131 17.156,-17.125 59.891,-12.863 122.88,-12.979 174.28,0 9.2082,2.3249 17.156,7.6278 17.156,17.125 v 7.9375 z"
         style="fill:url(#linearGradient5695)"
         inkscape:connector-curvature="0" />
      <path
         id="rect5723"
         sodipodi:nodetypes="ccccc"
         style="fill:url(#linearGradient5754)"
         inkscape:connector-curvature="0"
         d="m 253.13,397.01 c 2.7026,-9.7751 10.883,-13.654 20.893,-14.732 v 462.23 c -5.7077,-1.2111 -22.482,-4.0639 -20.982,-20.893 z" />
      <path
         id="rect5733"
         sodipodi:nodetypes="ccccc"
         style="opacity:0.51701;fill:url(#linearGradient5787)"
         inkscape:connector-curvature="0"
         d="m 396.69,374.45 c 13.18,1.3623 28.645,3.7364 46.478,7.955 l -0.0631,461.46 c -15.951,3.2583 -31.115,5.4928 -44.997,6.0609 z" />
      <path
         id="rect5743"
         sodipodi:nodetypes="ccccc"
         style="fill:url(#linearGradient5789)"
         inkscape:connector-curvature="0"
         d="m 454.29,386.65 c 6.4885,4.8852 8.1379,8.3108 7.5774,20.456 l 0.82075,412.55 c -0.0556,9.9195 -2.2926,17.173 -8.3981,19.698 z" />
      <path
         id="rect5775"
         sodipodi:nodetypes="ccccc"
         style="opacity:0.7381;fill:url(#linearGradient5864)"
         inkscape:connector-curvature="0"
         d="m 291.3,378.72 c 22.038,-3.1481 45.041,-5.3202 69.74,-5.7793 l -0.40395,480.58 c -24.773,-0.36932 -46.894,-2.1865 -68.521,-5.6604 z" />
      <path
         id="path6058"
         style="fill:#ffffff;filter:url(#filter6180)"
         sodipodi:type="star"
         d="m 288.41013,374.02 c -0.27881,0.0642 -23.8867,67.42247 -24.15512,67.32345 -0.27013,-0.0996 17.33328,-69.70131 17.13704,-69.91201 -0.19499,-0.20936 -70.33292,13.02475 -70.38138,12.74278 -0.0488,-0.28377 69.02975,-19.8396 69.1141,-20.11489 0.0838,-0.27355 -46.44622,-54.39773 -46.22625,-54.58068 0.22136,-0.18411 51.69647,49.86172 51.97705,49.79712 0.27881,-0.0642 23.8867,-67.42247 24.15512,-67.32345 0.27014,0.0996 -17.33327,69.70132 -17.13704,69.91201 0.19499,0.20937 70.33292,-13.02474 70.38138,-12.74277 0.0488,0.28376 -69.02975,19.8396 -69.1141,20.11489 -0.0838,0.27355 46.44622,54.39772 46.22626,54.58067 -0.22137,0.18412 -51.69647,-49.86171 -51.97706,-49.79712 z"
         sodipodi:r1="7.4802451"
         inkscape:flatsided="false"
         transform="matrix(0.36434,0,0,0.36434,237.88,213.78)"
         sodipodi:arg2="1.868128"
         sodipodi:arg1="1.4005584"
         inkscape:randomized="0"
         sodipodi:cy="366.64789"
         sodipodi:cx="287.14285"
         inkscape:rounded="0.004"
         sodipodi:r2="78.123497"
         sodipodi:sides="6" />
      <path
         id="path6197"
         style="fill:#ffffff;filter:url(#filter6180)"
         sodipodi:type="star"
         sodipodi:sides="6"
         sodipodi:r1="7.4802451"
         sodipodi:r2="78.123497"
         sodipodi:arg1="1.4005584"
         sodipodi:arg2="1.868128"
         transform="matrix(0.36434,0,0,0.36434,223.6,248.78)"
         inkscape:randomized="0"
         sodipodi:cy="366.64789"
         sodipodi:cx="287.14285"
         inkscape:rounded="0.004"
         inkscape:flatsided="false"
         d="m 288.41013,374.02 c -0.27881,0.0642 -23.8867,67.42247 -24.15512,67.32345 -0.27013,-0.0996 17.33328,-69.70131 17.13704,-69.91201 -0.19499,-0.20936 -70.33292,13.02475 -70.38138,12.74278 -0.0488,-0.28377 69.02975,-19.8396 69.1141,-20.11489 0.0838,-0.27355 -46.44622,-54.39773 -46.22625,-54.58068 0.22136,-0.18411 51.69647,49.86172 51.97705,49.79712 0.27881,-0.0642 23.8867,-67.42247 24.15512,-67.32345 0.27014,0.0996 -17.33327,69.70132 -17.13704,69.91201 0.19499,0.20937 70.33292,-13.02474 70.38138,-12.74277 0.0488,0.28376 -69.02975,19.8396 -69.1141,20.11489 -0.0838,0.27355 46.44622,54.39772 46.22626,54.58067 -0.22137,0.18412 -51.69647,-49.86171 -51.97706,-49.79712 z" />
      <path
         id="path6199"
         style="fill:#ffffff;filter:url(#filter6180)"
         sodipodi:type="star"
         d="m 288.41013,374.02 c -0.27881,0.0642 -23.8867,67.42247 -24.15512,67.32345 -0.27013,-0.0996 17.33328,-69.70131 17.13704,-69.91201 -0.19499,-0.20936 -70.33292,13.02475 -70.38138,12.74278 -0.0488,-0.28377 69.02975,-19.8396 69.1141,-20.11489 0.0838,-0.27355 -46.44622,-54.39773 -46.22625,-54.58068 0.22136,-0.18411 51.69647,49.86172 51.97705,49.79712 0.27881,-0.0642 23.8867,-67.42247 24.15512,-67.32345 0.27014,0.0996 -17.33327,69.70132 -17.13704,69.91201 0.19499,0.20937 70.33292,-13.02474 70.38138,-12.74277 0.0488,0.28376 -69.02975,19.8396 -69.1141,20.11489 -0.0838,0.27355 46.44622,54.39772 46.22626,54.58067 -0.22137,0.18412 -51.69647,-49.86171 -51.97706,-49.79712 z"
         sodipodi:r1="7.4802451"
         inkscape:flatsided="false"
         transform="matrix(0.36434,0,0,0.36434,215.03,708.78)"
         sodipodi:arg2="1.868128"
         sodipodi:arg1="1.4005584"
         inkscape:randomized="0"
         sodipodi:cy="366.64789"
         sodipodi:cx="287.14285"
         inkscape:rounded="0.004"
         sodipodi:r2="78.123497"
         sodipodi:sides="6" />
    </g>
    <text
       xml:space="preserve"
       style="font-style:normal;font-variant:normal;font-weight:normal;font-stretch:normal;font-size:385.688px;line-height:1.25;font-family:'Microsoft Yi Baiti';-inkscape-font-specification:'Microsoft Yi Baiti';fill:#ffffff;fill-opacity:1;stroke:#000000;stroke-width:2.00879"
       x="-306.35571"
       y="590.1803"
       id="text1091"
       transform="scale(1.2316351,0.8119288)"><tspan
         sodipodi:role="line"
         id="tspan1089"
         x="-306.35571"
         y="590.1803"
         style="font-style:normal;font-variant:normal;font-weight:normal;font-stretch:normal;font-size:385.688px;font-family:'Microsoft Yi Baiti';-inkscape-font-specification:'Microsoft Yi Baiti';fill:#ffffff;stroke:#000000;stroke-width:2.00879">S</tspan></text>
  </g>
</svg>
